<svg width="121" height="191" viewBox="0 0 121 191" fill="none" xmlns="http://www.w3.org/2000/svg">
<mask id="path-1-inside-1_13_15" fill="white">
<path d="M120.742 60.9786L120.698 65.5294C120.69 65.7815 120.647 65.9071 120.651 66.2174C120.655 66.6229 120.591 67.1693 120.561 67.5524C120.551 67.6712 120.566 67.7957 120.556 67.9148C120.541 68.0877 120.522 68.0453 120.513 68.2394C120.365 71.3407 119.573 76.3157 119.008 79.1411C118.375 82.3048 117.642 85.4521 116.75 88.5093C116.204 90.3791 115.659 92.2426 115.05 94.07L111.552 103.714C110.722 105.786 109.916 107.863 109.009 109.902L107.909 112.432C107.824 112.63 107.763 112.754 107.685 112.944L107.232 113.962C106.592 115.282 106.046 116.653 105.41 117.975C105.251 118.306 105.103 118.609 104.95 118.939C104.86 119.133 104.815 119.257 104.72 119.445C104.623 119.638 104.576 119.743 104.489 119.948L102.851 123.366C102.759 123.549 102.714 123.689 102.622 123.872L94.8866 139.434C94.7108 139.786 94.5573 140.047 94.381 140.399C94.2917 140.578 94.2218 140.727 94.1365 140.89C94.0496 141.057 93.9705 141.173 93.8755 141.364L92.6191 143.738C92.5346 143.9 92.4711 144.057 92.3705 144.225C92.2641 144.402 92.2046 144.531 92.1148 144.704C92.0278 144.871 91.9506 144.988 91.8544 145.179L90.2954 147.985C90.1965 148.151 90.1252 148.291 90.0321 148.457L88.1925 151.672C88.0978 151.846 88.0135 151.962 87.9183 152.134C87.3558 153.145 86.1177 155.27 85.4697 156.256C84.5813 157.607 83.5906 159.339 82.703 160.75C82.5074 161.06 82.3333 161.341 82.1336 161.651L71.7481 177.504C71.554 177.795 71.3824 178.075 71.1729 178.353C70.7516 178.914 70.4007 179.537 69.9782 180.1L65.7574 186.08C65.6378 186.239 65.5611 186.341 65.4422 186.5C64.9937 187.1 63.9674 188.421 63.4205 188.844C63.2527 188.974 63.1847 189.057 63.0201 189.179C61.4469 190.346 60.1041 190.389 58.5422 189.167C58.3885 189.046 58.3074 188.952 58.1486 188.825C57.7887 188.538 56.7415 187.259 56.442 186.855L53.9276 183.442C53.3246 182.583 52.6661 181.745 52.0897 180.869C51.8973 180.576 51.6818 180.304 51.4828 180.005L48.4692 175.62C48.3608 175.458 48.278 175.359 48.1652 175.189L46.6858 172.992C45.2987 170.909 43.9132 168.827 42.5868 166.706L41.4376 164.914C41.2413 164.608 41.0586 164.312 40.8753 164.006C39.9567 162.472 38.9692 160.973 38.0484 159.435C37.6719 158.806 37.3161 158.233 36.9401 157.602L35.8226 155.733C35.2269 154.63 34.5241 153.589 33.9228 152.486C33.8281 152.312 33.7441 152.196 33.6488 152.025C33.2918 151.383 32.9536 150.785 32.5797 150.153C32.1989 149.509 31.8687 148.883 31.5007 148.245L30.446 146.359C30.1155 145.718 29.7363 145.116 29.4054 144.459C29.3111 144.272 29.2417 144.18 29.1446 143.984C29.052 143.797 28.9717 143.688 28.8835 143.51C28.4853 142.702 27.9973 141.928 27.597 141.12L26.816 139.649C26.6491 139.314 26.4765 139.016 26.3104 138.684L25.2839 136.723C24.9484 136.046 24.6181 135.437 24.2884 134.778C23.7979 133.797 21.6754 129.682 21.341 128.856L15.7148 116.745C15.4204 116.04 15.122 115.376 14.8235 114.695C14.672 114.35 14.541 114.022 14.389 113.66L10.5752 104.147C8.89457 99.7612 7.47798 95.4313 6.0855 90.8993C5.25093 88.1825 4.2096 84.3803 3.59055 81.5386C2.57797 76.8892 1.66695 72.4458 1.26245 67.6457C1.18647 66.7439 1.06032 65.763 1.03524 64.886C0.995544 63.5018 0.898865 61.9612 0.898865 60.5651C0.898865 59.0143 0.959489 57.5047 1.08003 55.9673C1.09197 55.8139 1.07395 55.6792 1.09514 55.5229C1.16162 55.029 1.16478 54.4562 1.23954 53.9212C1.31552 53.3772 1.34939 52.9003 1.42415 52.3595L1.89001 49.3329C1.97525 48.8162 2.08021 48.3393 2.17372 47.8703C2.65639 45.4443 3.28762 43.2655 4.04085 41.0067C4.19305 40.5501 4.32528 40.1478 4.48966 39.7092C4.80405 38.8698 5.12235 37.9933 5.48107 37.1624C6.09475 35.7405 6.71281 34.3614 7.42464 32.9942C8.2653 31.3794 9.11838 29.7641 10.1161 28.2416C10.7522 27.2711 11.37 26.2897 12.0582 25.3587L12.7937 24.3481C12.9262 24.1717 13.0379 24.0261 13.1743 23.8554C13.3095 23.6866 13.4093 23.5305 13.5498 23.3579L15.7148 20.7439C15.7995 20.6348 15.8524 20.6002 15.9318 20.5013L20.277 16.0696C20.455 15.921 20.5305 15.8049 20.7307 15.6502C20.9151 15.508 20.9937 15.3887 21.1903 15.2367L22.5983 14.0257C22.9234 13.7425 23.2451 13.4941 23.5846 13.2198L26.579 10.9755C27.2524 10.4758 27.9751 10.044 28.6724 9.57645L32.2403 7.44631C33.0834 6.95682 33.9657 6.53747 34.8419 6.09596C37.5479 4.73196 41.347 3.25157 44.3136 2.42552C44.7503 2.30376 45.2052 2.17494 45.6757 2.04124C47.2164 1.60362 51.39 0.682358 52.9627 0.551341C53.0531 0.686498 53.1312 0.79243 53.2318 0.925395L54.9382 3.26301C55.0376 3.4045 55.1172 3.51653 55.2273 3.66313C55.4262 3.92784 55.5974 4.15992 55.7922 4.43072C55.9968 4.71516 56.1807 4.94822 56.3721 5.22949C56.4668 5.36879 56.5484 5.4662 56.6458 5.59916L60.9492 11.4971C61.174 11.8274 61.9905 12.7927 62.0611 13.0964C61.4667 13.9843 60.2286 15.6062 59.5862 16.4573L54.3674 23.5539C54.1716 23.815 54.0196 24.0436 53.8253 24.2984C53.6334 24.5502 53.1368 24.5565 52.8249 24.6303C52.1104 24.7993 51.475 24.9569 50.7768 25.1558C47.639 26.0488 46.1717 26.7994 43.4203 28.1846L41.759 29.1426C40.4413 29.9894 39.1901 30.8719 37.9761 31.8389C37.4535 32.2551 36.7209 32.8566 36.2465 33.3259C36.1209 33.4504 36.0278 33.5458 35.9032 33.672L35.2366 34.2917C33.6128 35.9156 31.7963 38.0623 30.5748 40.0154C30.0761 40.8129 29.5303 41.6122 29.1134 42.4599L27.84 45.0464C26.5671 48.0035 25.7466 50.8603 25.2006 54.1248C25.0855 54.8142 24.9722 55.6756 24.9303 56.4278L24.7937 58.2212C24.7326 59.3519 24.8037 61.4944 24.8885 62.5844C25.0845 65.1074 25.5786 67.6016 26.2938 70.0018C26.7655 71.5847 27.3914 73.362 28.1332 74.8253C28.5073 75.5637 28.8392 76.3089 29.2493 77.018C29.3881 77.2581 29.4947 77.4776 29.6448 77.7252C30.7095 79.4835 31.5623 80.7155 32.8155 82.3203L36.5911 86.3105L38.0801 87.5788C38.1867 87.6636 38.2761 87.7361 38.3852 87.8253C38.5995 88.0006 38.7821 88.1389 39.0062 88.307C40.7213 89.5942 42.5415 90.7605 44.4614 91.7205L45.9784 92.4552C47.8182 93.3704 50.6139 94.2524 52.5855 94.7171C58.1218 96.0219 64.0597 96.0791 69.588 94.6983L72.1188 93.9663C72.3952 93.8742 72.6416 93.7749 72.9343 93.6792C73.7399 93.4152 74.5443 93.0959 75.2953 92.7316C75.5377 92.614 75.7917 92.5 76.0571 92.3904C76.3082 92.2869 76.5371 92.1566 76.7658 92.0422C78.4269 91.2118 80.0992 90.2384 81.5781 89.1347C82.0128 88.8103 82.4202 88.5222 82.8379 88.1886C83.4438 87.7047 84.0791 87.2147 84.6361 86.6782L87.3699 83.9437C87.4795 83.8253 87.5014 83.7635 87.6215 83.6437L89.8227 80.8823L90.9186 79.267C90.9972 79.1491 91.0535 79.0678 91.1343 78.9312L91.7546 77.8974C91.8284 77.7754 91.8922 77.6809 91.9609 77.5521C93.0124 75.5744 93.967 73.6401 94.6813 71.4958C95.0471 70.3978 95.4085 69.2826 95.6717 68.0745C95.8047 67.4635 95.9576 66.8722 96.0597 66.2568C96.7306 62.2126 96.8453 58.9571 96.3836 54.8707C96.1834 53.0976 95.8098 51.3418 95.3252 49.6797C94.7105 47.5732 93.9792 45.5366 93.0024 43.5932C92.8804 43.3509 92.7825 43.1208 92.6459 42.8929C92.5008 42.6506 92.4209 42.4421 92.2784 42.2034C91.7478 41.3146 91.2692 40.4578 90.6984 39.6016C89.9941 38.5449 89.2399 37.5845 88.4641 36.5975C87.4783 35.3433 86.3052 34.1987 85.1402 33.1206L83.4688 31.667C81.7856 30.3337 80.0103 29.0705 78.0991 28.0762L77.4096 27.7087C76.0213 27.0203 74.5095 26.3172 73.004 25.819C70.1523 24.875 67.3912 24.1934 64.3588 23.9411C64.4016 23.7804 64.5064 23.7217 64.6082 23.5931C64.7022 23.4738 64.7799 23.3834 64.8785 23.2661C65.6909 22.3007 66.8598 20.8293 67.679 19.909C68.0767 19.4627 68.4133 19.0046 68.8058 18.5545C69.7641 17.4555 70.6355 16.288 71.6074 15.1983L72.7322 13.8418C73.466 13.0007 73.3876 13.232 72.7152 12.3222L69.7902 8.21634C69.4066 7.6538 69.0068 7.14288 68.6232 6.58034L64.5298 0.840161C64.3337 0.57837 64.096 0.28517 63.9453 0C67.5792 0 73.2638 0.926863 76.7392 1.91047C78.6207 2.44306 80.489 3.00439 82.3067 3.69551C83.7701 4.25222 87.3261 5.75283 88.6482 6.54453C89.4138 7.00309 90.2542 7.39785 91.0138 7.85519L95.4754 10.7459C95.8368 11.013 96.1753 11.2483 96.5384 11.521C97.3754 12.1493 99.0877 13.449 99.8458 14.1871L100.58 14.8315C100.906 15.1179 101.203 15.445 101.523 15.7267C102.156 16.2839 103.601 17.6815 104.055 18.2499L104.532 18.7374C105.03 19.3029 105.576 19.8511 106.037 20.4487L107.686 22.4765C108.225 23.1523 108.777 23.8588 109.254 24.5845C109.729 25.3058 110.296 26.0252 110.739 26.7755C110.864 26.9864 110.973 27.1367 111.094 27.3393C111.549 28.0996 112.062 28.8484 112.47 29.6394C112.572 29.8354 112.694 30.0176 112.807 30.2219L113.451 31.4157C113.951 32.4261 114.534 33.4596 114.959 34.5036C115.037 34.697 115.143 34.9286 115.243 35.138L116.075 37.1096C116.169 37.3458 116.253 37.5375 116.336 37.7674C116.828 39.1311 117.332 40.4544 117.761 41.8567C117.904 42.3228 118.04 42.783 118.179 43.2769C118.242 43.5005 118.309 43.7386 118.383 43.9921C118.455 44.2425 118.509 44.4894 118.577 44.7169C118.933 45.9155 119.38 47.9728 119.587 49.2209L120.309 54.0133C120.57 55.9276 120.742 58.9547 120.742 60.9786Z"/>
</mask>
<path d="M120.742 60.9786L120.698 65.5294C120.69 65.7815 120.647 65.9071 120.651 66.2174C120.655 66.6229 120.591 67.1693 120.561 67.5524C120.551 67.6712 120.566 67.7957 120.556 67.9148C120.541 68.0877 120.522 68.0453 120.513 68.2394C120.365 71.3407 119.573 76.3157 119.008 79.1411C118.375 82.3048 117.642 85.4521 116.75 88.5093C116.204 90.3791 115.659 92.2426 115.05 94.07L111.552 103.714C110.722 105.786 109.916 107.863 109.009 109.902L107.909 112.432C107.824 112.63 107.763 112.754 107.685 112.944L107.232 113.962C106.592 115.282 106.046 116.653 105.41 117.975C105.251 118.306 105.103 118.609 104.95 118.939C104.86 119.133 104.815 119.257 104.72 119.445C104.623 119.638 104.576 119.743 104.489 119.948L102.851 123.366C102.759 123.549 102.714 123.689 102.622 123.872L94.8866 139.434C94.7108 139.786 94.5573 140.047 94.381 140.399C94.2917 140.578 94.2218 140.727 94.1365 140.89C94.0496 141.057 93.9705 141.173 93.8755 141.364L92.6191 143.738C92.5346 143.9 92.4711 144.057 92.3705 144.225C92.2641 144.402 92.2046 144.531 92.1148 144.704C92.0278 144.871 91.9506 144.988 91.8544 145.179L90.2954 147.985C90.1965 148.151 90.1252 148.291 90.0321 148.457L88.1925 151.672C88.0978 151.846 88.0135 151.962 87.9183 152.134C87.3558 153.145 86.1177 155.27 85.4697 156.256C84.5813 157.607 83.5906 159.339 82.703 160.75C82.5074 161.06 82.3333 161.341 82.1336 161.651L71.7481 177.504C71.554 177.795 71.3824 178.075 71.1729 178.353C70.7516 178.914 70.4007 179.537 69.9782 180.1L65.7574 186.08C65.6378 186.239 65.5611 186.341 65.4422 186.5C64.9937 187.1 63.9674 188.421 63.4205 188.844C63.2527 188.974 63.1847 189.057 63.0201 189.179C61.4469 190.346 60.1041 190.389 58.5422 189.167C58.3885 189.046 58.3074 188.952 58.1486 188.825C57.7887 188.538 56.7415 187.259 56.442 186.855L53.9276 183.442C53.3246 182.583 52.6661 181.745 52.0897 180.869C51.8973 180.576 51.6818 180.304 51.4828 180.005L48.4692 175.62C48.3608 175.458 48.278 175.359 48.1652 175.189L46.6858 172.992C45.2987 170.909 43.9132 168.827 42.5868 166.706L41.4376 164.914C41.2413 164.608 41.0586 164.312 40.8753 164.006C39.9567 162.472 38.9692 160.973 38.0484 159.435C37.6719 158.806 37.3161 158.233 36.9401 157.602L35.8226 155.733C35.2269 154.63 34.5241 153.589 33.9228 152.486C33.8281 152.312 33.7441 152.196 33.6488 152.025C33.2918 151.383 32.9536 150.785 32.5797 150.153C32.1989 149.509 31.8687 148.883 31.5007 148.245L30.446 146.359C30.1155 145.718 29.7363 145.116 29.4054 144.459C29.3111 144.272 29.2417 144.18 29.1446 143.984C29.052 143.797 28.9717 143.688 28.8835 143.51C28.4853 142.702 27.9973 141.928 27.597 141.12L26.816 139.649C26.6491 139.314 26.4765 139.016 26.3104 138.684L25.2839 136.723C24.9484 136.046 24.6181 135.437 24.2884 134.778C23.7979 133.797 21.6754 129.682 21.341 128.856L15.7148 116.745C15.4204 116.04 15.122 115.376 14.8235 114.695C14.672 114.35 14.541 114.022 14.389 113.66L10.5752 104.147C8.89457 99.7612 7.47798 95.4313 6.0855 90.8993C5.25093 88.1825 4.2096 84.3803 3.59055 81.5386C2.57797 76.8892 1.66695 72.4458 1.26245 67.6457C1.18647 66.7439 1.06032 65.763 1.03524 64.886C0.995544 63.5018 0.898865 61.9612 0.898865 60.5651C0.898865 59.0143 0.959489 57.5047 1.08003 55.9673C1.09197 55.8139 1.07395 55.6792 1.09514 55.5229C1.16162 55.029 1.16478 54.4562 1.23954 53.9212C1.31552 53.3772 1.34939 52.9003 1.42415 52.3595L1.89001 49.3329C1.97525 48.8162 2.08021 48.3393 2.17372 47.8703C2.65639 45.4443 3.28762 43.2655 4.04085 41.0067C4.19305 40.5501 4.32528 40.1478 4.48966 39.7092C4.80405 38.8698 5.12235 37.9933 5.48107 37.1624C6.09475 35.7405 6.71281 34.3614 7.42464 32.9942C8.2653 31.3794 9.11838 29.7641 10.1161 28.2416C10.7522 27.2711 11.37 26.2897 12.0582 25.3587L12.7937 24.3481C12.9262 24.1717 13.0379 24.0261 13.1743 23.8554C13.3095 23.6866 13.4093 23.5305 13.5498 23.3579L15.7148 20.7439C15.7995 20.6348 15.8524 20.6002 15.9318 20.5013L20.277 16.0696C20.455 15.921 20.5305 15.8049 20.7307 15.6502C20.9151 15.508 20.9937 15.3887 21.1903 15.2367L22.5983 14.0257C22.9234 13.7425 23.2451 13.4941 23.5846 13.2198L26.579 10.9755C27.2524 10.4758 27.9751 10.044 28.6724 9.57645L32.2403 7.44631C33.0834 6.95682 33.9657 6.53747 34.8419 6.09596C37.5479 4.73196 41.347 3.25157 44.3136 2.42552C44.7503 2.30376 45.2052 2.17494 45.6757 2.04124C47.2164 1.60362 51.39 0.682358 52.9627 0.551341C53.0531 0.686498 53.1312 0.79243 53.2318 0.925395L54.9382 3.26301C55.0376 3.4045 55.1172 3.51653 55.2273 3.66313C55.4262 3.92784 55.5974 4.15992 55.7922 4.43072C55.9968 4.71516 56.1807 4.94822 56.3721 5.22949C56.4668 5.36879 56.5484 5.4662 56.6458 5.59916L60.9492 11.4971C61.174 11.8274 61.9905 12.7927 62.0611 13.0964C61.4667 13.9843 60.2286 15.6062 59.5862 16.4573L54.3674 23.5539C54.1716 23.815 54.0196 24.0436 53.8253 24.2984C53.6334 24.5502 53.1368 24.5565 52.8249 24.6303C52.1104 24.7993 51.475 24.9569 50.7768 25.1558C47.639 26.0488 46.1717 26.7994 43.4203 28.1846L41.759 29.1426C40.4413 29.9894 39.1901 30.8719 37.9761 31.8389C37.4535 32.2551 36.7209 32.8566 36.2465 33.3259C36.1209 33.4504 36.0278 33.5458 35.9032 33.672L35.2366 34.2917C33.6128 35.9156 31.7963 38.0623 30.5748 40.0154C30.0761 40.8129 29.5303 41.6122 29.1134 42.4599L27.84 45.0464C26.5671 48.0035 25.7466 50.8603 25.2006 54.1248C25.0855 54.8142 24.9722 55.6756 24.9303 56.4278L24.7937 58.2212C24.7326 59.3519 24.8037 61.4944 24.8885 62.5844C25.0845 65.1074 25.5786 67.6016 26.2938 70.0018C26.7655 71.5847 27.3914 73.362 28.1332 74.8253C28.5073 75.5637 28.8392 76.3089 29.2493 77.018C29.3881 77.2581 29.4947 77.4776 29.6448 77.7252C30.7095 79.4835 31.5623 80.7155 32.8155 82.3203L36.5911 86.3105L38.0801 87.5788C38.1867 87.6636 38.2761 87.7361 38.3852 87.8253C38.5995 88.0006 38.7821 88.1389 39.0062 88.307C40.7213 89.5942 42.5415 90.7605 44.4614 91.7205L45.9784 92.4552C47.8182 93.3704 50.6139 94.2524 52.5855 94.7171C58.1218 96.0219 64.0597 96.0791 69.588 94.6983L72.1188 93.9663C72.3952 93.8742 72.6416 93.7749 72.9343 93.6792C73.7399 93.4152 74.5443 93.0959 75.2953 92.7316C75.5377 92.614 75.7917 92.5 76.0571 92.3904C76.3082 92.2869 76.5371 92.1566 76.7658 92.0422C78.4269 91.2118 80.0992 90.2384 81.5781 89.1347C82.0128 88.8103 82.4202 88.5222 82.8379 88.1886C83.4438 87.7047 84.0791 87.2147 84.6361 86.6782L87.3699 83.9437C87.4795 83.8253 87.5014 83.7635 87.6215 83.6437L89.8227 80.8823L90.9186 79.267C90.9972 79.1491 91.0535 79.0678 91.1343 78.9312L91.7546 77.8974C91.8284 77.7754 91.8922 77.6809 91.9609 77.5521C93.0124 75.5744 93.967 73.6401 94.6813 71.4958C95.0471 70.3978 95.4085 69.2826 95.6717 68.0745C95.8047 67.4635 95.9576 66.8722 96.0597 66.2568C96.7306 62.2126 96.8453 58.9571 96.3836 54.8707C96.1834 53.0976 95.8098 51.3418 95.3252 49.6797C94.7105 47.5732 93.9792 45.5366 93.0024 43.5932C92.8804 43.3509 92.7825 43.1208 92.6459 42.8929C92.5008 42.6506 92.4209 42.4421 92.2784 42.2034C91.7478 41.3146 91.2692 40.4578 90.6984 39.6016C89.9941 38.5449 89.2399 37.5845 88.4641 36.5975C87.4783 35.3433 86.3052 34.1987 85.1402 33.1206L83.4688 31.667C81.7856 30.3337 80.0103 29.0705 78.0991 28.0762L77.4096 27.7087C76.0213 27.0203 74.5095 26.3172 73.004 25.819C70.1523 24.875 67.3912 24.1934 64.3588 23.9411C64.4016 23.7804 64.5064 23.7217 64.6082 23.5931C64.7022 23.4738 64.7799 23.3834 64.8785 23.2661C65.6909 22.3007 66.8598 20.8293 67.679 19.909C68.0767 19.4627 68.4133 19.0046 68.8058 18.5545C69.7641 17.4555 70.6355 16.288 71.6074 15.1983L72.7322 13.8418C73.466 13.0007 73.3876 13.232 72.7152 12.3222L69.7902 8.21634C69.4066 7.6538 69.0068 7.14288 68.6232 6.58034L64.5298 0.840161C64.3337 0.57837 64.096 0.28517 63.9453 0C67.5792 0 73.2638 0.926863 76.7392 1.91047C78.6207 2.44306 80.489 3.00439 82.3067 3.69551C83.7701 4.25222 87.3261 5.75283 88.6482 6.54453C89.4138 7.00309 90.2542 7.39785 91.0138 7.85519L95.4754 10.7459C95.8368 11.013 96.1753 11.2483 96.5384 11.521C97.3754 12.1493 99.0877 13.449 99.8458 14.1871L100.58 14.8315C100.906 15.1179 101.203 15.445 101.523 15.7267C102.156 16.2839 103.601 17.6815 104.055 18.2499L104.532 18.7374C105.03 19.3029 105.576 19.8511 106.037 20.4487L107.686 22.4765C108.225 23.1523 108.777 23.8588 109.254 24.5845C109.729 25.3058 110.296 26.0252 110.739 26.7755C110.864 26.9864 110.973 27.1367 111.094 27.3393C111.549 28.0996 112.062 28.8484 112.47 29.6394C112.572 29.8354 112.694 30.0176 112.807 30.2219L113.451 31.4157C113.951 32.4261 114.534 33.4596 114.959 34.5036C115.037 34.697 115.143 34.9286 115.243 35.138L116.075 37.1096C116.169 37.3458 116.253 37.5375 116.336 37.7674C116.828 39.1311 117.332 40.4544 117.761 41.8567C117.904 42.3228 118.04 42.783 118.179 43.2769C118.242 43.5005 118.309 43.7386 118.383 43.9921C118.455 44.2425 118.509 44.4894 118.577 44.7169C118.933 45.9155 119.38 47.9728 119.587 49.2209L120.309 54.0133C120.57 55.9276 120.742 58.9547 120.742 60.9786Z" stroke="#71EEB8" stroke-width="10" mask="url(#path-1-inside-1_13_15)"/>
<path d="M78.2822 59.2323C78.2822 61.2234 78.1919 62.5681 77.6588 64.445C77.4528 65.1704 77.1128 66.1869 76.7964 66.8452L75.6896 68.9549C74.9963 70.086 74.6071 70.4301 73.9628 71.2718C73.5765 71.7764 72.4429 72.8277 71.8843 73.2833C70.4589 74.4456 69.487 74.9872 67.8666 75.7446C65.5226 76.8402 62.5104 77.3504 59.7174 77.1999C57.5118 77.0811 54.9696 76.3659 53.0234 75.3927C51.4278 74.5949 49.7927 73.4094 48.5167 72.1334C46.4223 70.039 44.6526 67.2241 43.8546 63.8371C42.6046 58.5331 43.8565 53.3185 46.897 49.2608C47.0097 49.1101 47.1261 48.9367 47.2542 48.7908C47.7605 48.2151 48.2303 47.6314 48.7918 47.112L49.2051 46.744C49.3054 46.6444 49.3303 46.6373 49.4311 46.5562L50.5796 45.6369C51.3318 45.069 52.7582 44.2176 53.6254 43.8577C56.5684 42.6359 58.1165 42.322 61.4177 42.322C63.3937 42.322 65.6587 42.8695 67.4774 43.6147C68.2465 43.9298 68.5397 44.0903 69.2449 44.4665C70.6048 45.1917 70.9822 45.5643 72.0788 46.4116L72.8937 47.1592C73.0033 47.269 73.1034 47.3228 73.1881 47.4161C74.4442 48.802 75.4364 49.9344 76.3223 51.6803C76.4492 51.9301 76.5692 52.1493 76.6676 52.3919C76.7702 52.6451 76.8907 52.8857 76.9896 53.1268L77.5414 54.6888C77.9529 56.0189 78.2822 57.6951 78.2822 59.2323Z" fill="white"/>
</svg>
